<?xml version="1.0" encoding="UTF-8"?>
<svg width="245px" height="79px" viewBox="0 0 245 79" version="1.1" xmlns="http://www.w3.org/2000/svg" xmlns:xlink="http://www.w3.org/1999/xlink">
    <!-- Generator: Sketch 59.1 (86144) - https://sketch.com -->
    <title>logo BCA@3x</title>
    <desc>Created with Sketch.</desc>
    <defs>
        <polygon id="path-1" points="0 0.194841216 75.7948773 0.194841216 75.7948773 76.7398649 0 76.7398649"></polygon>
    </defs>
    <g id="Page-1" stroke="none" stroke-width="1" fill="none" fill-rule="evenodd">
        <g id="Artboard" transform="translate(-400.000000, -309.000000)">
            <g id="logo-BCA" transform="translate(400.000000, 309.000000)">
                <g id="Group-18" transform="translate(1.000000, 1.000000)">
                    <path d="M35.9943793,58 C35.9943793,54.971934 36.023464,46.8836814 35.9493113,45.8903148 C36.023464,33.8559316 27.1319504,25.3749227 21.5120652,26.0361355 C17.6328037,26.3744785 14.3750625,27.9251309 12.6302464,32.4120429 C11.0009828,36.5941367 12.4588829,42.1499751 17.8429467,43.4574435 C23.6011805,44.8587815 26.9655653,46.0205459 29.3966216,47.6743517 C32.3863124,49.682747 34.8178928,53.5290768 34.8820886,58 L35.9943793,58 Z" id="Fill-1" fill="#005CAA"></path>
                    <g id="Group-5">
                        <mask id="mask-2" fill="white">
                            <use xlink:href="#path-1"></use>
                        </mask>
                        <g id="Clip-4"></g>
                        <path d="M8.35376542,68.0032264 C18.3092502,72.7283209 28.240518,75.1210439 37.9005044,75.1210439 C48.1478807,75.1210439 58.3383214,72.8565676 67.4044773,68.5726622 C71.9126942,58.9036993 74.1947553,48.948848 74.1947553,39.0109054 C74.1947553,29.0224966 71.8124773,18.6355608 67.304518,8.94214527 C57.4953654,4.283125 47.2415485,1.81314189 37.6421044,1.81314189 C27.3406264,1.81314189 17.4647485,4.02194932 8.26488407,8.37661149 C3.85559593,17.8595777 1.60651119,27.8094865 1.60651119,37.9433108 C1.60651119,48.1062703 3.93958237,58.4960676 8.35376542,68.0032264 M37.9005044,76.7398649 C27.9197722,76.7398649 17.6535892,74.2555743 7.40775864,69.3450034 L7.15373831,69.2198784 L7.03471458,68.9620845 C2.43323661,59.1581115 -5.15254237e-05,48.4316993 -5.15254237e-05,37.9433108 C-5.15254237e-05,27.46975 2.33327729,17.2121014 6.9314061,7.42113514 L7.06021966,7.16152027 L7.31887729,7.02989189 C16.8026468,2.492875 26.996179,0.194581081 37.6421044,0.194581081 C47.5573993,0.194581081 58.1476773,2.75587162 68.2569654,7.60218919 L68.5220637,7.71951014 L68.6410875,7.98848986 C73.3265519,17.9688345 75.7948773,28.692125 75.7948773,39.0109054 C75.7948773,49.2836419 73.4236773,59.5542973 68.733318,69.5341216 L68.6075959,69.7939966 L68.3440434,69.9188615 C59.0143349,74.3775777 48.4830536,76.7398649 37.9005044,76.7398649" id="Fill-3" fill="#005CAA" mask="url(#mask-2)"></path>
                    </g>
                    <path d="M33,58 C33.0175929,54.0805045 30.8316895,50.6141812 27.977365,48.7498656 C25.4434557,47.1035314 22.0469501,46.025618 16.5670948,44.6280332 C14.8624649,44.1991102 13.101873,43.2291446 12.5484995,42 C11.0955686,43.4666819 10.8324169,46.7603931 11.0843762,48.6909375 C11.3857904,50.9156006 13.9787852,54.5876505 17.8966488,54.7326239 C20.2892214,54.8257093 23.3090894,54.2153089 24.7601982,53.9052849 C27.2587082,53.3658068 31.2166563,54.9383505 31.840568,58 L33,58 Z" id="Fill-6" fill="#005CAA"></path>
                    <path d="M38.1668216,7 C31.6290652,7 25.9780059,11.3621816 26,18.9068549 C26.0175059,25.24798 31.0650365,28.6480492 32.8666451,31.0732987 C35.5859865,34.7275108 37.0639006,39.0590915 37.2106147,45.6782178 C37.333988,50.9459781 37.3278322,56.1514993 37.3560464,58 L38.7988209,58 C38.7703502,56.0669579 38.7069963,50.5434987 38.7829183,45.5184709 C38.8796163,38.8913053 40.4075466,34.7275108 43.1304789,31.0732987 C44.9428602,28.6480492 49.9839785,25.24798 50,18.9068549 C50.0298908,11.3621816 44.3772926,7 37.8444096,7" id="Fill-8" fill="#005CAA"></path>
                    <path d="M39.0080789,58 C39.0080789,54.971934 38.9727019,46.8836814 39.0500072,45.8903148 C38.9837081,33.8559316 47.8654395,25.3749227 53.4840983,26.0361355 C57.3684964,26.3744785 60.6297347,27.9251309 62.3750016,32.4120429 C63.9957937,36.5941367 62.5348533,42.1499751 57.1633096,43.4574435 C51.3979016,44.8587815 48.0300082,46.0205459 45.5921376,47.6743517 C42.6115572,49.682747 40.3482133,53.5290768 40.2800797,58 L39.0080789,58 Z" id="Fill-10" fill="#005CAA"></path>
                    <path d="M42,58 C41.9824083,54.0805045 44.1681677,50.6141812 47.0157973,48.7498656 C49.5544847,47.1035314 52.9554514,46.025618 58.4396305,44.6280332 C60.1329564,44.1991102 61.9080075,43.2291446 62.4470296,42 C63.9063714,43.4666819 64.1708072,46.7603931 63.912618,48.6909375 C63.6081004,50.9156006 61.0199614,54.5876505 57.111986,54.7326239 C54.7195711,54.8257093 51.6809022,54.2153089 50.2392588,53.9052849 C47.7487216,53.3658068 43.7798427,54.9383505 43.1512872,58 L42,58 Z" id="Fill-12" fill="#005CAA"></path>
                    <path d="M44.5911666,66.7414444 C44.8487158,66.6945612 45.1858233,66.6588407 45.3241544,66.3817276 C45.3977399,66.1961483 45.4949779,66.0513128 45.4330992,65.6410849 C45.3523463,65.1543929 45.219749,64.8549544 44.6955719,64.9721624 L44.1938528,65.0664869 L44.3897622,66.773537 L44.5911666,66.7414444 Z M44.9887193,69.8100602 C45.2152097,69.7718281 45.4450448,69.7570376 45.6187353,69.6281088 C45.8851242,69.4249484 45.8657722,68.9809535 45.8292184,68.6566781 C45.7334139,67.9341748 45.5685633,67.6590152 44.9163284,67.7728744 L44.5056354,67.8485014 L44.7705909,69.8516411 L44.9887193,69.8100602 Z M43.7786204,71 L43,64.3515184 L44.886942,64.022778 C45.3389671,63.9504997 45.8939641,64.0453824 46.119021,64.3771925 C46.3708362,64.727421 46.4441828,65.0201618 46.4914877,65.4772729 C46.5591004,66.0412664 46.4193357,66.7032122 45.8762844,67.0297201 L45.8762844,67.0523245 C46.4840814,67.0523245 46.8565482,67.5627372 46.9626259,68.4281226 C46.981739,68.6083996 47.0242657,69.050162 46.981739,69.4249484 C46.8551147,70.2987057 46.4076289,70.5802839 45.6512275,70.702236 L43.7786204,71 Z" id="Fill-14" fill="#005CAA"></path>
                    <path d="M52.9166186,67.059985 C52.9317943,67.1865309 52.9452566,67.3186392 52.9499072,67.4437945 C53.1141474,68.6500132 52.9166186,69.6504211 51.7206757,69.9282658 C49.9502593,70.3190284 49.6139462,69.066085 49.303334,67.3186392 L49.1373804,66.3758028 C48.8901634,64.7067877 48.7905422,63.4427194 50.5173898,63.0466725 C51.4825152,62.846146 52.1250346,63.2916987 52.3901198,64.3849996 C52.4309962,64.5499264 52.4882723,64.7106814 52.5049166,64.8753301 L51.4462893,65.1270313 C51.3226808,64.7106814 51.1704343,63.9772715 50.6892178,64.0315055 C49.835952,64.1522108 50.1238007,65.3581514 50.2067775,65.8657256 L50.5293834,67.6785302 C50.6167661,68.2247634 50.8101339,69.0972347 51.547379,68.9292486 C52.1460848,68.7904653 51.8834473,67.7335985 51.8293533,67.2961113 L52.9166186,67.059985 Z" id="Fill-16" fill="#005CAA"></path>
                    <path d="M55.3957696,65.9451365 L56.4144169,65.657832 L55.0612302,63.0222635 L55.3957696,65.9451365 Z M54.4166435,69 L54,62.4656772 L55.618703,62 L59,67.67771 L57.7275257,68.0416114 L56.9237406,66.5947522 L55.5190648,67.0031805 L55.6974673,68.6376888 L54.4166435,69 Z" id="Fill-18" fill="#005CAA"></path>
                    <path d="M17.5517393,64.315012 C18.0482149,62.7603883 18.4944144,61.6155373 20.3898746,62.1210039 C21.3997665,62.4011355 22.0246645,62.8357672 21.9992533,63.98837 C21.9924223,64.2492559 21.9082646,64.5077362 21.8511577,64.7611377 L20.6674856,64.4417128 C20.8308826,63.8092782 20.9235107,63.300604 20.1256523,63.0600329 C19.2029236,62.8093044 18.9723097,63.9092488 18.8460732,64.3874507 L18.3646258,66.1115433 C18.2148907,66.6236924 18.0364656,67.469968 18.8460732,67.6872839 C19.5176951,67.8687814 19.9302863,67.2197741 20.1658184,66.2711221 L19.3428221,66.0607561 L19.6324556,65.0607824 L21.5732734,65.673704 L20.650818,69 L19.7567794,68.7645077 L19.9540581,68.060169 L19.9354778,68.060169 C19.5212472,68.6362031 19.0264111,68.6984843 18.581851,68.6132152 C16.6459514,68.1010661 16.8462357,66.862927 17.3175733,65.2096691 L17.5517393,64.315012 Z" id="Fill-20" fill="#005CAA"></path>
                    <path d="M24.0338867,65.8055535 L24.8844451,66.0271799 C25.4019708,66.0999412 25.6880272,65.8374348 25.7982507,65.2291192 C25.8853798,64.6678543 25.7607222,64.4541982 25.3046067,64.3444134 L24.3894889,64.161096 L24.0338867,65.8055535 Z M23.8205255,66.7460516 L23.2644215,69.3472049 L22,69.0808418 L23.3484013,63 L25.5003847,63.4753912 C26.7519468,63.74124 27.1337926,64.2911922 26.9605842,65.4219496 C26.8553469,66.0747447 26.5320245,66.7699625 25.7252932,66.7100566 L25.722144,66.7064571 C26.39477,66.9319401 26.4543432,67.2643796 26.3380836,67.8408139 C26.2879581,68.0863513 25.9336682,69.5737163 26.1777346,69.8164255 L26.1827209,70 L24.8844451,69.664218 C24.8261841,69.249247 25.0106773,68.5090355 25.0849469,68.0971498 C25.1592166,67.7328289 25.274164,67.2263278 24.8988791,67.0391538 C24.6031126,66.8823184 24.4947261,66.8905458 24.1632682,66.8128994 L23.8205255,66.7460516 Z" id="Fill-22" fill="#005CAA"></path>
                    <path d="M32.6676532,64.3624244 L34,64.5179455 L33.4279552,69.0824601 C33.1538213,70.5296849 32.5694685,71.1657823 30.9582323,70.9632753 C29.3053167,70.7648898 28.9159346,70.0252032 29.0141193,68.5645146 L29.5951154,64 L30.9341757,64.1524985 L30.354858,68.6117754 C30.2980731,69.0989464 30.1772304,69.816926 31.0547387,69.9015558 C31.8321042,69.9592579 32.019802,69.4577988 32.0992449,68.8285706 L32.6676532,64.3624244 Z" id="Fill-24" fill="#005CAA"></path>
                    <path d="M36.352629,67.616547 L36.9705993,67.6489269 C37.4658324,67.6651169 37.7904432,67.4753207 37.8307675,66.752003 C37.8572303,66.0650504 37.5963824,65.9514716 36.9504371,65.9173482 L36.4675533,65.9053925 L36.352629,67.616547 Z M35,70.9232845 L35.35435,65 L37.658381,65.0996305 C38.7438614,65.1549255 39.0341965,66.0314251 38.9968965,66.8688198 C38.9689215,67.3811698 38.8073722,67.9475694 38.3554878,68.2606584 C37.9892925,68.5189506 37.5109452,68.5832123 37.0794749,68.5617917 L36.3261662,68.5189506 L36.1817547,71 L35,70.9232845 Z" id="Fill-26" fill="#005CAA"></path>
                    <path d="M202,12.8849483 L192.528334,30.063034 C188.958337,27.1570002 184.598512,25.0255785 179.028002,25.0255785 C165.858047,25.0255785 160.503182,34.8468046 160.503182,41.757304 C160.503182,46.8943562 163.867443,54.4647489 175.589947,54.4647489 C180.506483,54.4647489 187.504366,51.0450881 189.51218,49.4888243 L180.157593,69.4183342 C175.693206,70.3053185 174.229849,70.8562291 170.442903,70.9785088 C149.464899,71.5982506 140.99036,58.7122095 141,45.55319 C141.011481,28.1435812 156.494855,6.97484841 182.146372,6.97484841 C183.717682,6.97484841 185.642575,7.52132668 187.287418,8.12203562 L188.950253,6 L202,12.8849483 Z" id="Fill-28" fill="#005CAA"></path>
                    <path d="M223.140493,25.9642216 L215.5305,43.9982127 L223.361177,43.9982127 L223.140493,25.9642216 Z M240.347408,7 L243,69 L223.277131,69 L223.266303,58.3625446 L209.815658,58.3625446 L205.385476,69 L184,69 L206.365922,24.7246048 L201.321125,24.6992325 L210.900001,7 L240.347408,7 Z" id="Fill-30" fill="#005CAA"></path>
                    <path d="M110.6435,43.0960931 L107.97038,53.2848286 L114.804555,53.2848286 C117.490714,53.2848286 121.153965,51.9600264 122.058304,48.6447859 C122.946997,45.3272163 120.379488,43.0960931 117.701413,43.0960931 L110.6435,43.0960931 Z M118.845397,32.1498472 C120.889026,32.1498472 124.501949,31.635092 125.40003,27.7108929 C126.396159,23.4523229 123.001497,23.3368976 121.38031,23.3368976 L115.575903,23.3068767 L113.548442,32.1498472 L118.845397,32.1498472 Z M128.539661,7.02415476 C138.421678,7.07513855 144,12.4004862 144,20.0858398 C144,27.1736221 138.108497,33.4510984 131.645132,36.6912866 C138.303029,39.1196161 138.87802,45.0782497 138.87802,49.2938588 C138.87802,59.4766418 128.578255,69 115.198313,69 L86,69 L97.387423,25.3607212 L92.7170906,25.3335471 L102.277842,7.02415476 C102.277842,7.02415476 120.504916,6.96980655 128.539661,7.02415476 L128.539661,7.02415476 Z" id="Fill-32" fill="#005CAA"></path>
                </g>
            </g>
        </g>
    </g>
</svg>